<?xml version="1.0" standalone="no"?>
<!DOCTYPE svg PUBLIC "-//W3C//DTD SVG 1.1//EN" "http://www.w3.org/Graphics/SVG/1.1/DTD/svg11.dtd">
<svg width="78mm" height="120mm" viewBox="-33 -32 78 120" xmlns="http://www.w3.org/2000/svg" version="1.1">
<title>OpenSCAD Model</title>
<path d="
M -32.65,55 L -32.5856,57.0501 L -32.3925,59.0921 L -32.0717,61.118 L -31.6242,63.1197 L -31.052,65.0894
 L -30.3572,67.0193 L -29.5426,68.9017 L -28.6114,70.7293 L -27.5673,72.4947 L -26.4144,74.1912 L -25.1573,75.8119
 L -23.8008,77.3505 L -22.3505,78.8008 L -20.8119,80.1573 L -19.1912,81.4144 L -17.4947,82.5673 L -15.7293,83.6114
 L -13.9017,84.5426 L -12.0193,85.3572 L -10.0894,86.052 L -8.11972,86.6242 L -6.118,87.0717 L -4.09213,87.3925
 L -2.05011,87.5856 L 0,87.65 L 2.05011,87.5856 L 4.09213,87.3925 L 6.118,87.0717 L 8.11972,86.6242
 L 10.0894,86.052 L 12.0193,85.3572 L 13.9017,84.5426 L 15.7293,83.6114 L 17.4947,82.5673 L 19.1912,81.4144
 L 20.8119,80.1573 L 22.3505,78.8008 L 23.8008,77.3505 L 25.1573,75.8119 L 26.4144,74.1912 L 27.5673,72.4947
 L 28.6114,70.7293 L 29.5426,68.9017 L 30.3572,67.0193 L 31.052,65.0894 L 31.6242,63.1197 L 32.0717,61.118
 L 32.3925,59.0921 L 32.5856,57.0501 L 32.65,55 L 32.0709,6 L 45,6 L 45,1.3
 L 25.9591,1.3 L 25.9487,1.63255 L 25.795,3.25866 L 25.5395,4.87191 L 25.1832,6.46594 L 24.7275,8.03444
 L 24.1742,9.57124 L 23.5255,11.0703 L 22.784,12.5256 L 21.9525,13.9315 L 21.0344,15.2824 L 20.0333,16.573
 L 18.9532,17.7982 L 17.7982,18.9532 L 16.573,20.0333 L 15.2824,21.0344 L 13.9315,21.9525 L 12.5256,22.784
 L 11.0703,23.5255 L 9.57124,24.1742 L 8.03444,24.7275 L 6.46594,25.1832 L 4.87191,25.5395 L 3.25866,25.795
 L 1.63255,25.9487 L 0,26 L -1.63255,25.9487 L -3.25866,25.795 L -4.87191,25.5395 L -6.46594,25.1832
 L -8.03444,24.7275 L -9.57124,24.1742 L -11.0703,23.5255 L -12.5256,22.784 L -13.9315,21.9525 L -15.2824,21.0344
 L -16.573,20.0333 L -17.7982,18.9532 L -18.9532,17.7982 L -20.0333,16.573 L -21.0344,15.2824 L -21.9525,13.9315
 L -22.784,12.5256 L -23.5255,11.0703 L -24.1742,9.57124 L -24.7275,8.03444 L -25.1832,6.46594 L -25.5395,4.87191
 L -25.795,3.25866 L -25.9487,1.63255 L -26,-0 L -25.9487,-1.63255 L -25.795,-3.25866 L -25.5395,-4.87191
 L -25.1832,-6.46594 L -24.7275,-8.03444 L -24.1742,-9.57124 L -23.5255,-11.0703 L -22.784,-12.5256 L -21.9525,-13.9315
 L -21.0344,-15.2824 L -20.0333,-16.573 L -18.9532,-17.7982 L -17.7982,-18.9532 L -16.573,-20.0333 L -15.2824,-21.0344
 L -13.9315,-21.9525 L -12.5256,-22.784 L -11.0703,-23.5255 L -9.57124,-24.1742 L -8.03444,-24.7275 L -6.46594,-25.1832
 L -4.87191,-25.5395 L -3.25866,-25.795 L -1.63255,-25.9487 L 0,-26 L 1.63255,-25.9487 L 3.25866,-25.795
 L 4.87191,-25.5395 L 6.46594,-25.1832 L 8.03444,-24.7275 L 9.57124,-24.1742 L 11.0703,-23.5255 L 12.5256,-22.784
 L 13.9315,-21.9525 L 15.2824,-21.0344 L 16.573,-20.0333 L 17.7982,-18.9532 L 18.9532,-17.7982 L 20.0333,-16.573
 L 21.0344,-15.2824 L 21.9525,-13.9315 L 22.784,-12.5256 L 23.5255,-11.0703 L 24.1742,-9.57124 L 24.7275,-8.03444
 L 25.1832,-6.46594 L 25.5395,-4.87191 L 25.795,-3.25866 L 25.914,-2 L 45,-2 L 45,-8
 L 30.9825,-8 L 30.4338,-9.88854 L 29.7528,-11.78 L 28.9545,-13.6249 L 28.0418,-15.4161 L 27.0185,-17.1465
 L 25.8885,-18.8091 L 24.6564,-20.3976 L 23.327,-21.9055 L 21.9055,-23.327 L 20.3976,-24.6564 L 18.8091,-25.8885
 L 17.1465,-27.0185 L 15.4161,-28.0418 L 13.6249,-28.9545 L 11.78,-29.7528 L 9.88854,-30.4338 L 7.95808,-30.9947
 L 5.9962,-31.4332 L 4.01066,-31.7477 L 2.0093,-31.9369 L 0,-32 L -2.0093,-31.9369 L -4.01066,-31.7477
 L -5.9962,-31.4332 L -7.95808,-30.9947 L -9.88854,-30.4338 L -11.78,-29.7528 L -13.6249,-28.9545 L -15.4161,-28.0418
 L -17.1465,-27.0185 L -18.8091,-25.8885 L -20.3976,-24.6564 L -21.9055,-23.327 L -23.327,-21.9055 L -24.6564,-20.3976
 L -25.8885,-18.8091 L -27.0185,-17.1465 L -28.0418,-15.4161 L -28.9545,-13.6249 L -29.7528,-11.78 L -30.4338,-9.88854
 L -30.9947,-7.95808 L -31.4332,-5.9962 L -31.7477,-4.01066 L -31.9369,-2.0093 L -32,-0 z
M -28.8,60 L -28.7964,59.887 L -28.7858,59.7744 L -28.7681,59.6627 L -28.7434,59.5524 L -28.7119,59.4438
 L -28.6736,59.3374 L -28.6287,59.2336 L -28.5774,59.1328 L -28.5198,59.0355 L -28.4562,58.942 L -28.3869,58.8526
 L -28.3121,58.7678 L -28.2322,58.6879 L -28.1474,58.6131 L -28.058,58.5438 L -27.9645,58.4802 L -27.8672,58.4226
 L -27.7664,58.3713 L -27.6626,58.3264 L -27.5562,58.2881 L -27.4476,58.2565 L -27.3373,58.2319 L -27.2256,58.2142
 L -27.113,58.2036 L -27,58.2 L -26.887,58.2036 L -26.7744,58.2142 L -26.6627,58.2319 L -26.5524,58.2565
 L -26.4438,58.2881 L -26.3374,58.3264 L -26.2336,58.3713 L -26.1328,58.4226 L -26.0355,58.4802 L -25.942,58.5438
 L -25.8526,58.6131 L -25.7678,58.6879 L -25.6879,58.7678 L -25.6131,58.8526 L -25.5438,58.942 L -25.4802,59.0355
 L -25.4226,59.1328 L -25.3713,59.2336 L -25.3264,59.3374 L -25.2881,59.4438 L -25.2565,59.5524 L -25.2319,59.6627
 L -25.2142,59.7744 L -25.2036,59.887 L -25.2,60 L -25.2036,60.113 L -25.2142,60.2256 L -25.2319,60.3373
 L -25.2565,60.4476 L -25.2881,60.5562 L -25.3264,60.6626 L -25.3713,60.7664 L -25.4226,60.8672 L -25.4802,60.9645
 L -25.5438,61.058 L -25.6131,61.1474 L -25.6879,61.2322 L -25.7678,61.3121 L -25.8526,61.3869 L -25.942,61.4562
 L -26.0355,61.5198 L -26.1328,61.5774 L -26.2336,61.6287 L -26.3374,61.6736 L -26.4438,61.7119 L -26.5524,61.7434
 L -26.6627,61.7681 L -26.7744,61.7858 L -26.887,61.7964 L -27,61.8 L -27.113,61.7964 L -27.2256,61.7858
 L -27.3373,61.7681 L -27.4476,61.7434 L -27.5562,61.7119 L -27.6626,61.6736 L -27.7664,61.6287 L -27.8672,61.5774
 L -27.9645,61.5198 L -28.058,61.4562 L -28.1474,61.3869 L -28.2322,61.3121 L -28.3121,61.2322 L -28.3869,61.1474
 L -28.4562,61.058 L -28.5198,60.9645 L -28.5774,60.8672 L -28.6287,60.7664 L -28.6736,60.6626 L -28.7119,60.5562
 L -28.7434,60.4476 L -28.7681,60.3373 L -28.7858,60.2256 L -28.7964,60.113 z
M -22.55,55 L -22.5055,53.5841 L -22.3722,52.1737 L -22.1506,50.7746 L -21.8415,49.392 L -21.4463,48.0317
 L -20.9665,46.6988 L -20.4038,45.3987 L -19.7607,44.1365 L -19.0396,42.9171 L -18.2433,41.7454 L -17.3751,40.6261
 L -16.4382,39.5635 L -15.4365,38.5618 L -14.3739,37.6249 L -13.2546,36.7567 L -12.0829,35.9604 L -10.8635,35.2393
 L -9.60132,34.5961 L -8.30121,34.0335 L -6.96833,33.5537 L -5.60796,33.1584 L -4.22545,32.8494 L -2.82626,32.6278
 L -1.41593,32.4945 L 0,32.45 L 1.41593,32.4945 L 2.82626,32.6278 L 4.22545,32.8494 L 5.60796,33.1584
 L 6.96833,33.5537 L 8.30121,34.0335 L 9.60132,34.5961 L 10.8635,35.2393 L 12.0829,35.9604 L 13.2546,36.7567
 L 14.3739,37.6249 L 15.4365,38.5618 L 16.4382,39.5635 L 17.3751,40.6261 L 18.2433,41.7454 L 19.0396,42.9171
 L 19.7607,44.1365 L 20.4038,45.3987 L 20.9665,46.6988 L 21.4463,48.0317 L 21.8415,49.392 L 22.1506,50.7746
 L 22.3722,52.1737 L 22.5055,53.5841 L 22.55,55 L 22.5055,56.4159 L 22.3722,57.8263 L 22.1506,59.2254
 L 21.8415,60.608 L 21.4463,61.9683 L 20.9665,63.3012 L 20.4038,64.6013 L 19.7607,65.8635 L 19.0396,67.0829
 L 18.2433,68.2546 L 17.3751,69.3739 L 16.4382,70.4365 L 15.4365,71.4382 L 14.3739,72.3751 L 13.2546,73.2433
 L 12.0829,74.0396 L 10.8635,74.7607 L 9.60132,75.4038 L 8.30121,75.9665 L 6.96833,76.4463 L 5.60796,76.8415
 L 4.22545,77.1506 L 2.82626,77.3722 L 1.41593,77.5055 L 0,77.55 L -1.41593,77.5055 L -2.82626,77.3722
 L -4.22545,77.1506 L -5.60796,76.8415 L -6.96833,76.4463 L -8.30121,75.9665 L -9.60132,75.4038 L -10.8635,74.7607
 L -12.0829,74.0396 L -13.2546,73.2433 L -14.3739,72.3751 L -15.4365,71.4382 L -16.4382,70.4365 L -17.3751,69.3739
 L -18.2433,68.2546 L -19.0396,67.0829 L -19.7607,65.8635 L -20.4038,64.6013 L -20.9665,63.3012 L -21.4463,61.9683
 L -21.8415,60.608 L -22.1506,59.2254 L -22.3722,57.8263 L -22.5055,56.4159 z
M 25.2,60 L 25.2036,59.887 L 25.2142,59.7744 L 25.2319,59.6627 L 25.2565,59.5524 L 25.2881,59.4438
 L 25.3264,59.3374 L 25.3713,59.2336 L 25.4226,59.1328 L 25.4802,59.0355 L 25.5438,58.942 L 25.6131,58.8526
 L 25.6879,58.7678 L 25.7678,58.6879 L 25.8526,58.6131 L 25.942,58.5438 L 26.0355,58.4802 L 26.1328,58.4226
 L 26.2336,58.3713 L 26.3374,58.3264 L 26.4438,58.2881 L 26.5524,58.2565 L 26.6627,58.2319 L 26.7744,58.2142
 L 26.887,58.2036 L 27,58.2 L 27.113,58.2036 L 27.2256,58.2142 L 27.3373,58.2319 L 27.4476,58.2565
 L 27.5562,58.2881 L 27.6626,58.3264 L 27.7664,58.3713 L 27.8672,58.4226 L 27.9645,58.4802 L 28.058,58.5438
 L 28.1474,58.6131 L 28.2322,58.6879 L 28.3121,58.7678 L 28.3869,58.8526 L 28.4562,58.942 L 28.5198,59.0355
 L 28.5774,59.1328 L 28.6287,59.2336 L 28.6736,59.3374 L 28.7119,59.4438 L 28.7434,59.5524 L 28.7681,59.6627
 L 28.7858,59.7744 L 28.7964,59.887 L 28.8,60 L 28.7964,60.113 L 28.7858,60.2256 L 28.7681,60.3373
 L 28.7434,60.4476 L 28.7119,60.5562 L 28.6736,60.6626 L 28.6287,60.7664 L 28.5774,60.8672 L 28.5198,60.9645
 L 28.4562,61.058 L 28.3869,61.1474 L 28.3121,61.2322 L 28.2322,61.3121 L 28.1474,61.3869 L 28.058,61.4562
 L 27.9645,61.5198 L 27.8672,61.5774 L 27.7664,61.6287 L 27.6626,61.6736 L 27.5562,61.7119 L 27.4476,61.7434
 L 27.3373,61.7681 L 27.2256,61.7858 L 27.113,61.7964 L 27,61.8 L 26.887,61.7964 L 26.7744,61.7858
 L 26.6627,61.7681 L 26.5524,61.7434 L 26.4438,61.7119 L 26.3374,61.6736 L 26.2336,61.6287 L 26.1328,61.5774
 L 26.0355,61.5198 L 25.942,61.4562 L 25.8526,61.3869 L 25.7678,61.3121 L 25.6879,61.2322 L 25.6131,61.1474
 L 25.5438,61.058 L 25.4802,60.9645 L 25.4226,60.8672 L 25.3713,60.7664 L 25.3264,60.6626 L 25.2881,60.5562
 L 25.2565,60.4476 L 25.2319,60.3373 L 25.2142,60.2256 L 25.2036,60.113 z
" stroke="black" fill="lightgray" stroke-width="0.5"/>
</svg>
