<?xml version="1.0" standalone="no"?>
<!DOCTYPE svg PUBLIC "-//W3C//DTD SVG 1.1//EN" "http://www.w3.org/Graphics/SVG/1.1/DTD/svg11.dtd">
<svg width="66mm" height="120mm" viewBox="-33 -32 66 120" xmlns="http://www.w3.org/2000/svg" version="1.1">
<title>OpenSCAD Model</title>
<path d="
M -32.65,55 L -32.5856,57.0501 L -32.3925,59.0921 L -32.0717,61.118 L -31.6242,63.1197 L -31.052,65.0894
 L -30.3572,67.0193 L -29.5426,68.9017 L -28.6114,70.7293 L -27.5673,72.4947 L -26.4144,74.1912 L -25.1573,75.8119
 L -23.8008,77.3505 L -22.3505,78.8008 L -20.8119,80.1573 L -19.1912,81.4144 L -17.4947,82.5673 L -15.7293,83.6114
 L -13.9017,84.5426 L -12.0193,85.3572 L -10.0894,86.052 L -8.11972,86.6242 L -6.118,87.0717 L -4.09213,87.3925
 L -2.05011,87.5856 L 0,87.65 L 2.05011,87.5856 L 4.09213,87.3925 L 6.118,87.0717 L 8.11972,86.6242
 L 10.0894,86.052 L 12.0193,85.3572 L 13.9017,84.5426 L 15.7293,83.6114 L 17.4947,82.5673 L 19.1912,81.4144
 L 20.8119,80.1573 L 22.3505,78.8008 L 23.8008,77.3505 L 25.1573,75.8119 L 26.4144,74.1912 L 27.5673,72.4947
 L 28.6114,70.7293 L 29.5426,68.9017 L 30.3572,67.0193 L 31.052,65.0894 L 31.6242,63.1197 L 32.0717,61.118
 L 32.3925,59.0921 L 32.5856,57.0501 L 32.65,55 L 32,-0 L 31.9369,-2.0093 L 31.7477,-4.01066
 L 31.4332,-5.9962 L 30.9947,-7.95808 L 30.4338,-9.88854 L 29.7528,-11.78 L 28.9545,-13.6249 L 28.0418,-15.4161
 L 27.0185,-17.1465 L 25.8885,-18.8091 L 24.6564,-20.3976 L 23.327,-21.9055 L 21.9055,-23.327 L 20.3976,-24.6564
 L 18.8091,-25.8885 L 17.1465,-27.0185 L 15.4161,-28.0418 L 13.6249,-28.9545 L 11.78,-29.7528 L 9.88854,-30.4338
 L 7.95808,-30.9947 L 5.9962,-31.4332 L 4.01066,-31.7477 L 2.0093,-31.9369 L 0,-32 L -2.0093,-31.9369
 L -4.01066,-31.7477 L -5.9962,-31.4332 L -7.95808,-30.9947 L -9.88854,-30.4338 L -11.78,-29.7528 L -13.6249,-28.9545
 L -15.4161,-28.0418 L -17.1465,-27.0185 L -18.8091,-25.8885 L -20.3976,-24.6564 L -21.9055,-23.327 L -23.327,-21.9055
 L -24.6564,-20.3976 L -25.8885,-18.8091 L -27.0185,-17.1465 L -28.0418,-15.4161 L -28.9545,-13.6249 L -29.7528,-11.78
 L -30.4338,-9.88854 L -30.9947,-7.95808 L -31.4332,-5.9962 L -31.7477,-4.01066 L -31.9369,-2.0093 L -32,-0
 z
M -31,60 L -30.9921,59.7488 L -30.9685,59.4987 L -30.9291,59.2505 L -30.8743,59.0052 L -30.8042,58.7639
 L -30.7191,58.5275 L -30.6193,58.2969 L -30.5052,58.073 L -30.3773,57.8567 L -30.2361,57.6489 L -30.0821,57.4503
 L -29.9159,57.2618 L -29.7382,57.0841 L -29.5497,56.9179 L -29.3511,56.7639 L -29.1433,56.6227 L -28.927,56.4948
 L -28.7031,56.3807 L -28.4725,56.2809 L -28.2361,56.1958 L -27.9948,56.1257 L -27.7495,56.0709 L -27.5013,56.0315
 L -27.2512,56.0079 L -27,56 L -26.7488,56.0079 L -26.4987,56.0315 L -26.2505,56.0709 L -26.0052,56.1257
 L -25.7639,56.1958 L -25.5275,56.2809 L -25.2969,56.3807 L -25.073,56.4948 L -24.8567,56.6227 L -24.6489,56.7639
 L -24.4503,56.9179 L -24.2618,57.0841 L -24.0841,57.2618 L -23.9179,57.4503 L -23.7639,57.6489 L -23.6227,57.8567
 L -23.4948,58.073 L -23.3807,58.2969 L -23.2809,58.5275 L -23.1958,58.7639 L -23.1257,59.0052 L -23.0709,59.2505
 L -23.0315,59.4987 L -23.0079,59.7488 L -23,60 L -23.0079,60.2512 L -23.0315,60.5013 L -23.0709,60.7495
 L -23.1257,60.9948 L -23.1958,61.2361 L -23.2809,61.4725 L -23.3807,61.7031 L -23.4948,61.927 L -23.6227,62.1433
 L -23.7639,62.3511 L -23.9179,62.5497 L -24.0841,62.7382 L -24.2618,62.9159 L -24.4503,63.0821 L -24.6489,63.2361
 L -24.8567,63.3773 L -25.073,63.5052 L -25.2969,63.6193 L -25.5275,63.7191 L -25.7639,63.8042 L -26.0052,63.8743
 L -26.2505,63.9291 L -26.4987,63.9685 L -26.7488,63.9921 L -27,64 L -27.2512,63.9921 L -27.5013,63.9685
 L -27.7495,63.9291 L -27.9948,63.8743 L -28.2361,63.8042 L -28.4725,63.7191 L -28.7031,63.6193 L -28.927,63.5052
 L -29.1433,63.3773 L -29.3511,63.2361 L -29.5497,63.0821 L -29.7382,62.9159 L -29.9159,62.7382 L -30.0821,62.5497
 L -30.2361,62.3511 L -30.3773,62.1433 L -30.5052,61.927 L -30.6193,61.7031 L -30.7191,61.4725 L -30.8042,61.2361
 L -30.8743,60.9948 L -30.9291,60.7495 L -30.9685,60.5013 L -30.9921,60.2512 z
M -27,-0 L -26.9467,-1.69534 L -26.7871,-3.384 L -26.5218,-5.05929 L -26.1517,-6.71463 L -25.6785,-8.34346
 L -25.104,-9.93936 L -24.4303,-11.496 L -23.6603,-13.0073 L -22.7969,-14.4673 L -21.8435,-15.8702 L -20.8039,-17.2104
 L -19.6822,-18.4828 L -18.4828,-19.6822 L -17.2104,-20.8039 L -15.8702,-21.8435 L -14.4673,-22.7969 L -13.0073,-23.6603
 L -11.496,-24.4303 L -9.93936,-25.104 L -8.34346,-25.6785 L -6.71463,-26.1517 L -5.05929,-26.5218 L -3.384,-26.7871
 L -1.69534,-26.9467 L 0,-27 L 1.69534,-26.9467 L 3.384,-26.7871 L 5.05929,-26.5218 L 6.71463,-26.1517
 L 8.34346,-25.6785 L 9.93936,-25.104 L 11.496,-24.4303 L 13.0073,-23.6603 L 14.4673,-22.7969 L 15.8702,-21.8435
 L 17.2104,-20.8039 L 18.4828,-19.6822 L 19.6822,-18.4828 L 20.8039,-17.2104 L 21.8435,-15.8702 L 22.7969,-14.4673
 L 23.6603,-13.0073 L 24.4303,-11.496 L 25.104,-9.93936 L 25.6785,-8.34346 L 26.1517,-6.71463 L 26.5218,-5.05929
 L 26.7871,-3.384 L 26.9467,-1.69534 L 27,-0 L 26.9467,1.69534 L 26.7871,3.384 L 26.5218,5.05929
 L 26.1517,6.71463 L 25.6785,8.34346 L 25.104,9.93936 L 24.4303,11.496 L 23.6603,13.0073 L 22.7969,14.4673
 L 21.8435,15.8702 L 20.8039,17.2104 L 19.6822,18.4828 L 18.4828,19.6822 L 17.2104,20.8039 L 15.8702,21.8435
 L 14.4673,22.7969 L 13.0073,23.6603 L 11.496,24.4303 L 9.93936,25.104 L 8.34346,25.6785 L 6.71463,26.1517
 L 5.05929,26.5218 L 3.384,26.7871 L 1.69534,26.9467 L 0,27 L -1.69534,26.9467 L -3.384,26.7871
 L -5.05929,26.5218 L -6.71463,26.1517 L -8.34346,25.6785 L -9.93936,25.104 L -11.496,24.4303 L -13.0073,23.6603
 L -14.4673,22.7969 L -15.8702,21.8435 L -17.2104,20.8039 L -18.4828,19.6822 L -19.6822,18.4828 L -20.8039,17.2104
 L -21.8435,15.8702 L -22.7969,14.4673 L -23.6603,13.0073 L -24.4303,11.496 L -25.104,9.93936 L -25.6785,8.34346
 L -26.1517,6.71463 L -26.5218,5.05929 L -26.7871,3.384 L -26.9467,1.69534 z
M -22.65,55 L -22.6053,53.5778 L -22.4714,52.1612 L -22.2488,50.7558 L -21.9384,49.3672 L -21.5414,48.0008
 L -21.0594,46.662 L -20.4943,45.3561 L -19.8483,44.0883 L -19.124,42.8635 L -18.3242,41.6867 L -17.4521,40.5623
 L -16.5111,39.495 L -15.505,38.4889 L -14.4377,37.5479 L -13.3133,36.6758 L -12.1365,35.876 L -10.9117,35.1517
 L -9.6439,34.5057 L -8.33802,33.9406 L -6.99923,33.4586 L -5.63283,33.0616 L -4.24419,32.7512 L -2.8388,32.5286
 L -1.4222,32.3947 L 0,32.35 L 1.4222,32.3947 L 2.8388,32.5286 L 4.24419,32.7512 L 5.63283,33.0616
 L 6.99923,33.4586 L 8.33802,33.9406 L 9.6439,34.5057 L 10.9117,35.1517 L 12.1365,35.876 L 13.3133,36.6758
 L 14.4377,37.5479 L 15.505,38.4889 L 16.5111,39.495 L 17.4521,40.5623 L 18.3242,41.6867 L 19.124,42.8635
 L 19.8483,44.0883 L 20.4943,45.3561 L 21.0594,46.662 L 21.5414,48.0008 L 21.9384,49.3672 L 22.2488,50.7558
 L 22.4714,52.1612 L 22.6053,53.5778 L 22.65,55 L 22.6053,56.4222 L 22.4714,57.8388 L 22.2488,59.2442
 L 21.9384,60.6328 L 21.5414,61.9992 L 21.0594,63.338 L 20.4943,64.6439 L 19.8483,65.9117 L 19.124,67.1365
 L 18.3242,68.3133 L 17.4521,69.4377 L 16.5111,70.505 L 15.505,71.5111 L 14.4377,72.4521 L 13.3133,73.3242
 L 12.1365,74.124 L 10.9117,74.8483 L 9.6439,75.4943 L 8.33802,76.0594 L 6.99923,76.5414 L 5.63283,76.9384
 L 4.24419,77.2488 L 2.8388,77.4714 L 1.4222,77.6053 L 0,77.65 L -1.4222,77.6053 L -2.8388,77.4714
 L -4.24419,77.2488 L -5.63283,76.9384 L -6.99923,76.5414 L -8.33802,76.0594 L -9.6439,75.4943 L -10.9117,74.8483
 L -12.1365,74.124 L -13.3133,73.3242 L -14.4377,72.4521 L -15.505,71.5111 L -16.5111,70.505 L -17.4521,69.4377
 L -18.3242,68.3133 L -19.124,67.1365 L -19.8483,65.9117 L -20.4943,64.6439 L -21.0594,63.338 L -21.5414,61.9992
 L -21.9384,60.6328 L -22.2488,59.2442 L -22.4714,57.8388 L -22.6053,56.4222 z
M 23,60 L 23.0079,59.7488 L 23.0315,59.4987 L 23.0709,59.2505 L 23.1257,59.0052 L 23.1958,58.7639
 L 23.2809,58.5275 L 23.3807,58.2969 L 23.4948,58.073 L 23.6227,57.8567 L 23.7639,57.6489 L 23.9179,57.4503
 L 24.0841,57.2618 L 24.2618,57.0841 L 24.4503,56.9179 L 24.6489,56.7639 L 24.8567,56.6227 L 25.073,56.4948
 L 25.2969,56.3807 L 25.5275,56.2809 L 25.7639,56.1958 L 26.0052,56.1257 L 26.2505,56.0709 L 26.4987,56.0315
 L 26.7488,56.0079 L 27,56 L 27.2512,56.0079 L 27.5013,56.0315 L 27.7495,56.0709 L 27.9948,56.1257
 L 28.2361,56.1958 L 28.4725,56.2809 L 28.7031,56.3807 L 28.927,56.4948 L 29.1433,56.6227 L 29.3511,56.7639
 L 29.5497,56.9179 L 29.7382,57.0841 L 29.9159,57.2618 L 30.0821,57.4503 L 30.2361,57.6489 L 30.3773,57.8567
 L 30.5052,58.073 L 30.6193,58.2969 L 30.7191,58.5275 L 30.8042,58.7639 L 30.8743,59.0052 L 30.9291,59.2505
 L 30.9685,59.4987 L 30.9921,59.7488 L 31,60 L 30.9921,60.2512 L 30.9685,60.5013 L 30.9291,60.7495
 L 30.8743,60.9948 L 30.8042,61.2361 L 30.7191,61.4725 L 30.6193,61.7031 L 30.5052,61.927 L 30.3773,62.1433
 L 30.2361,62.3511 L 30.0821,62.5497 L 29.9159,62.7382 L 29.7382,62.9159 L 29.5497,63.0821 L 29.3511,63.2361
 L 29.1433,63.3773 L 28.927,63.5052 L 28.7031,63.6193 L 28.4725,63.7191 L 28.2361,63.8042 L 27.9948,63.8743
 L 27.7495,63.9291 L 27.5013,63.9685 L 27.2512,63.9921 L 27,64 L 26.7488,63.9921 L 26.4987,63.9685
 L 26.2505,63.9291 L 26.0052,63.8743 L 25.7639,63.8042 L 25.5275,63.7191 L 25.2969,63.6193 L 25.073,63.5052
 L 24.8567,63.3773 L 24.6489,63.2361 L 24.4503,63.0821 L 24.2618,62.9159 L 24.0841,62.7382 L 23.9179,62.5497
 L 23.7639,62.3511 L 23.6227,62.1433 L 23.4948,61.927 L 23.3807,61.7031 L 23.2809,61.4725 L 23.1958,61.2361
 L 23.1257,60.9948 L 23.0709,60.7495 L 23.0315,60.5013 L 23.0079,60.2512 z
" stroke="black" fill="lightgray" stroke-width="0.5"/>
</svg>
