<?xml version="1.0" standalone="no"?>
<!DOCTYPE svg PUBLIC "-//W3C//DTD SVG 1.1//EN" "http://www.w3.org/Graphics/SVG/1.1/DTD/svg11.dtd">
<svg width="66mm" height="120mm" viewBox="-33 -32 66 120" xmlns="http://www.w3.org/2000/svg" version="1.1">
<title>OpenSCAD Model</title>
<path d="
M -32.65,55 L -32.5856,57.0501 L -32.3925,59.0921 L -32.0717,61.118 L -31.6242,63.1197 L -31.052,65.0894
 L -30.3572,67.0193 L -29.5426,68.9017 L -28.6114,70.7293 L -27.5673,72.4947 L -26.4144,74.1912 L -25.1573,75.8119
 L -23.8008,77.3505 L -22.3505,78.8008 L -20.8119,80.1573 L -19.1912,81.4144 L -17.4947,82.5673 L -15.7293,83.6114
 L -13.9017,84.5426 L -12.0193,85.3572 L -10.0894,86.052 L -8.11972,86.6242 L -6.118,87.0717 L -4.09213,87.3925
 L -2.05011,87.5856 L 0,87.65 L 2.05011,87.5856 L 4.09213,87.3925 L 6.118,87.0717 L 8.11972,86.6242
 L 10.0894,86.052 L 12.0193,85.3572 L 13.9017,84.5426 L 15.7293,83.6114 L 17.4947,82.5673 L 19.1912,81.4144
 L 20.8119,80.1573 L 22.3505,78.8008 L 23.8008,77.3505 L 25.1573,75.8119 L 26.4144,74.1912 L 27.5673,72.4947
 L 28.6114,70.7293 L 29.5426,68.9017 L 30.3572,67.0193 L 31.052,65.0894 L 31.6242,63.1197 L 32.0717,61.118
 L 32.3925,59.0921 L 32.5856,57.0501 L 32.65,55 L 32,-0 L 31.9369,-2.0093 L 31.7477,-4.01066
 L 31.4332,-5.9962 L 30.9947,-7.95808 L 30.4338,-9.88854 L 29.7528,-11.78 L 28.9545,-13.6249 L 28.0418,-15.4161
 L 27.0185,-17.1465 L 25.8885,-18.8091 L 24.6564,-20.3976 L 23.327,-21.9055 L 21.9055,-23.327 L 20.3976,-24.6564
 L 18.8091,-25.8885 L 17.1465,-27.0185 L 15.4161,-28.0418 L 13.6249,-28.9545 L 11.78,-29.7528 L 9.88854,-30.4338
 L 7.95808,-30.9947 L 5.9962,-31.4332 L 4.01066,-31.7477 L 2.0093,-31.9369 L 0,-32 L -2.0093,-31.9369
 L -4.01066,-31.7477 L -5.9962,-31.4332 L -7.95808,-30.9947 L -9.88854,-30.4338 L -11.78,-29.7528 L -13.6249,-28.9545
 L -15.4161,-28.0418 L -17.1465,-27.0185 L -18.8091,-25.8885 L -20.3976,-24.6564 L -21.9055,-23.327 L -23.327,-21.9055
 L -24.6564,-20.3976 L -25.8885,-18.8091 L -27.0185,-17.1465 L -28.0418,-15.4161 L -28.9545,-13.6249 L -29.7528,-11.78
 L -30.4338,-9.88854 L -30.9947,-7.95808 L -31.4332,-5.9962 L -31.7477,-4.01066 L -31.9369,-2.0093 L -32,-0
 z
M -29.75,60 L -29.7446,59.8273 L -29.7283,59.6553 L -29.7013,59.4847 L -29.6636,59.3161 L -29.6154,59.1502
 L -29.5569,58.9877 L -29.4883,58.8291 L -29.4098,58.6752 L -29.3219,58.5265 L -29.2248,58.3836 L -29.1189,58.2471
 L -29.0047,58.1175 L -28.8825,57.9953 L -28.7529,57.8811 L -28.6164,57.7752 L -28.4735,57.6781 L -28.3248,57.5902
 L -28.1709,57.5117 L -28.0123,57.4431 L -27.8498,57.3846 L -27.6839,57.3364 L -27.5153,57.2987 L -27.3447,57.2717
 L -27.1727,57.2554 L -27,57.25 L -26.8273,57.2554 L -26.6553,57.2717 L -26.4847,57.2987 L -26.3161,57.3364
 L -26.1502,57.3846 L -25.9877,57.4431 L -25.8291,57.5117 L -25.6752,57.5902 L -25.5265,57.6781 L -25.3836,57.7752
 L -25.2471,57.8811 L -25.1175,57.9953 L -24.9953,58.1175 L -24.8811,58.2471 L -24.7752,58.3836 L -24.6781,58.5265
 L -24.5902,58.6752 L -24.5117,58.8291 L -24.4431,58.9877 L -24.3846,59.1502 L -24.3364,59.3161 L -24.2987,59.4847
 L -24.2717,59.6553 L -24.2554,59.8273 L -24.25,60 L -24.2554,60.1727 L -24.2717,60.3447 L -24.2987,60.5153
 L -24.3364,60.6839 L -24.3846,60.8498 L -24.4431,61.0123 L -24.5117,61.1709 L -24.5902,61.3248 L -24.6781,61.4735
 L -24.7752,61.6164 L -24.8811,61.7529 L -24.9953,61.8825 L -25.1175,62.0047 L -25.2471,62.1189 L -25.3836,62.2248
 L -25.5265,62.3219 L -25.6752,62.4098 L -25.8291,62.4883 L -25.9877,62.5569 L -26.1502,62.6154 L -26.3161,62.6636
 L -26.4847,62.7013 L -26.6553,62.7283 L -26.8273,62.7446 L -27,62.75 L -27.1727,62.7446 L -27.3447,62.7283
 L -27.5153,62.7013 L -27.6839,62.6636 L -27.8498,62.6154 L -28.0123,62.5569 L -28.1709,62.4883 L -28.3248,62.4098
 L -28.4735,62.3219 L -28.6164,62.2248 L -28.7529,62.1189 L -28.8825,62.0047 L -29.0047,61.8825 L -29.1189,61.7529
 L -29.2248,61.6164 L -29.3219,61.4735 L -29.4098,61.3248 L -29.4883,61.1709 L -29.5569,61.0123 L -29.6154,60.8498
 L -29.6636,60.6839 L -29.7013,60.5153 L -29.7283,60.3447 L -29.7446,60.1727 z
M -22.65,55 L -22.6053,53.5778 L -22.4714,52.1612 L -22.2488,50.7558 L -21.9384,49.3672 L -21.5414,48.0008
 L -21.0594,46.662 L -20.4943,45.3561 L -19.8483,44.0883 L -19.124,42.8635 L -18.3242,41.6867 L -17.4521,40.5623
 L -16.5111,39.495 L -15.505,38.4889 L -14.4377,37.5479 L -13.3133,36.6758 L -12.1365,35.876 L -10.9117,35.1517
 L -9.6439,34.5057 L -8.33802,33.9406 L -6.99923,33.4586 L -5.63283,33.0616 L -4.24419,32.7512 L -2.8388,32.5286
 L -1.4222,32.3947 L 0,32.35 L 1.4222,32.3947 L 2.8388,32.5286 L 4.24419,32.7512 L 5.63283,33.0616
 L 6.99923,33.4586 L 8.33802,33.9406 L 9.6439,34.5057 L 10.9117,35.1517 L 12.1365,35.876 L 13.3133,36.6758
 L 14.4377,37.5479 L 15.505,38.4889 L 16.5111,39.495 L 17.4521,40.5623 L 18.3242,41.6867 L 19.124,42.8635
 L 19.8483,44.0883 L 20.4943,45.3561 L 21.0594,46.662 L 21.5414,48.0008 L 21.9384,49.3672 L 22.2488,50.7558
 L 22.4714,52.1612 L 22.6053,53.5778 L 22.65,55 L 22.6053,56.4222 L 22.4714,57.8388 L 22.2488,59.2442
 L 21.9384,60.6328 L 21.5414,61.9992 L 21.0594,63.338 L 20.4943,64.6439 L 19.8483,65.9117 L 19.124,67.1365
 L 18.3242,68.3133 L 17.4521,69.4377 L 16.5111,70.505 L 15.505,71.5111 L 14.4377,72.4521 L 13.3133,73.3242
 L 12.1365,74.124 L 10.9117,74.8483 L 9.6439,75.4943 L 8.33802,76.0594 L 6.99923,76.5414 L 5.63283,76.9384
 L 4.24419,77.2488 L 2.8388,77.4714 L 1.4222,77.6053 L 0,77.65 L -1.4222,77.6053 L -2.8388,77.4714
 L -4.24419,77.2488 L -5.63283,76.9384 L -6.99923,76.5414 L -8.33802,76.0594 L -9.6439,75.4943 L -10.9117,74.8483
 L -12.1365,74.124 L -13.3133,73.3242 L -14.4377,72.4521 L -15.505,71.5111 L -16.5111,70.505 L -17.4521,69.4377
 L -18.3242,68.3133 L -19.124,67.1365 L -19.8483,65.9117 L -20.4943,64.6439 L -21.0594,63.338 L -21.5414,61.9992
 L -21.9384,60.6328 L -22.2488,59.2442 L -22.4714,57.8388 L -22.6053,56.4222 z
M -16,-0 L -15.9684,-1.00465 L -15.8738,-2.00533 L -15.7166,-2.9981 L -15.4973,-3.97904 L -15.2169,-4.94427
 L -14.8764,-5.88999 L -14.4772,-6.81247 L -14.0209,-7.70806 L -13.5092,-8.57323 L -12.9443,-9.40456 L -12.3282,-10.1988
 L -11.6635,-10.9528 L -10.9528,-11.6635 L -10.1988,-12.3282 L -9.40456,-12.9443 L -8.57323,-13.5092 L -7.70806,-14.0209
 L -6.81247,-14.4772 L -5.88999,-14.8764 L -4.94427,-15.2169 L -3.97904,-15.4973 L -2.9981,-15.7166 L -2.00533,-15.8738
 L -1.00465,-15.9684 L 0,-16 L 1.00465,-15.9684 L 2.00533,-15.8738 L 2.9981,-15.7166 L 3.97904,-15.4973
 L 4.94427,-15.2169 L 5.88999,-14.8764 L 6.81247,-14.4772 L 7.70806,-14.0209 L 8.57323,-13.5092 L 9.40456,-12.9443
 L 10.1988,-12.3282 L 10.9528,-11.6635 L 11.6635,-10.9528 L 12.3282,-10.1988 L 12.9443,-9.40456 L 13.5092,-8.57323
 L 14.0209,-7.70806 L 14.4772,-6.81247 L 14.8764,-5.88999 L 15.2169,-4.94427 L 15.4973,-3.97904 L 15.7166,-2.9981
 L 15.8738,-2.00533 L 15.9684,-1.00465 L 16,-0 L 15.9684,1.00465 L 15.8738,2.00533 L 15.7166,2.9981
 L 15.4973,3.97904 L 15.2169,4.94427 L 14.8764,5.88999 L 14.4772,6.81247 L 14.0209,7.70806 L 13.5092,8.57323
 L 12.9443,9.40456 L 12.3282,10.1988 L 11.6635,10.9528 L 10.9528,11.6635 L 10.1988,12.3282 L 9.40456,12.9443
 L 8.57323,13.5092 L 7.70806,14.0209 L 6.81247,14.4772 L 5.88999,14.8764 L 4.94427,15.2169 L 3.97904,15.4973
 L 2.9981,15.7166 L 2.00533,15.8738 L 1.00465,15.9684 L 0,16 L -1.00465,15.9684 L -2.00533,15.8738
 L -2.9981,15.7166 L -3.97904,15.4973 L -4.94427,15.2169 L -5.88999,14.8764 L -6.81247,14.4772 L -7.70806,14.0209
 L -8.57323,13.5092 L -9.40456,12.9443 L -10.1988,12.3282 L -10.9528,11.6635 L -11.6635,10.9528 L -12.3282,10.1988
 L -12.9443,9.40456 L -13.5092,8.57323 L -14.0209,7.70806 L -14.4772,6.81247 L -14.8764,5.88999 L -15.2169,4.94427
 L -15.4973,3.97904 L -15.7166,2.9981 L -15.8738,2.00533 L -15.9684,1.00465 z
M -2.6,23 L -2.59487,22.8367 L -2.5795,22.6741 L -2.55395,22.5128 L -2.51832,22.3534 L -2.47275,22.1966
 L -2.41742,22.0429 L -2.35255,21.893 L -2.2784,21.7474 L -2.19525,21.6068 L -2.10344,21.4718 L -2.00333,21.3427
 L -1.89532,21.2202 L -1.77982,21.1047 L -1.6573,20.9967 L -1.52824,20.8966 L -1.39315,20.8047 L -1.25256,20.7216
 L -1.10703,20.6474 L -0.957124,20.5826 L -0.803444,20.5273 L -0.646593,20.4817 L -0.487191,20.4461 L -0.325866,20.4205
 L -0.163255,20.4051 L 0,20.4 L 0.163255,20.4051 L 0.325866,20.4205 L 0.487191,20.4461 L 0.646593,20.4817
 L 0.803444,20.5273 L 0.957124,20.5826 L 1.10703,20.6474 L 1.25256,20.7216 L 1.39315,20.8047 L 1.52824,20.8966
 L 1.6573,20.9967 L 1.77982,21.1047 L 1.89532,21.2202 L 2.00333,21.3427 L 2.10344,21.4718 L 2.19525,21.6068
 L 2.2784,21.7474 L 2.35255,21.893 L 2.41742,22.0429 L 2.47275,22.1966 L 2.51832,22.3534 L 2.55395,22.5128
 L 2.5795,22.6741 L 2.59487,22.8367 L 2.6,23 L 2.59487,23.1633 L 2.5795,23.3259 L 2.55395,23.4872
 L 2.51832,23.6466 L 2.47275,23.8034 L 2.41742,23.9571 L 2.35255,24.107 L 2.2784,24.2526 L 2.19525,24.3931
 L 2.10344,24.5282 L 2.00333,24.6573 L 1.89532,24.7798 L 1.77982,24.8953 L 1.6573,25.0033 L 1.52824,25.1034
 L 1.39315,25.1953 L 1.25256,25.2784 L 1.10703,25.3525 L 0.957124,25.4174 L 0.803444,25.4727 L 0.646593,25.5183
 L 0.487191,25.5539 L 0.325866,25.5795 L 0.163255,25.5949 L 0,25.6 L -0.163255,25.5949 L -0.325866,25.5795
 L -0.487191,25.5539 L -0.646593,25.5183 L -0.803444,25.4727 L -0.957124,25.4174 L -1.10703,25.3525 L -1.25256,25.2784
 L -1.39315,25.1953 L -1.52824,25.1034 L -1.6573,25.0033 L -1.77982,24.8953 L -1.89532,24.7798 L -2.00333,24.6573
 L -2.10344,24.5282 L -2.19525,24.3931 L -2.2784,24.2526 L -2.35255,24.107 L -2.41742,23.9571 L -2.47275,23.8034
 L -2.51832,23.6466 L -2.55395,23.4872 L -2.5795,23.3259 L -2.59487,23.1633 z
M -2.6,-23 L -2.59487,-23.1633 L -2.5795,-23.3259 L -2.55395,-23.4872 L -2.51832,-23.6466 L -2.47275,-23.8034
 L -2.41742,-23.9571 L -2.35255,-24.107 L -2.2784,-24.2526 L -2.19525,-24.3931 L -2.10344,-24.5282 L -2.00333,-24.6573
 L -1.89532,-24.7798 L -1.77982,-24.8953 L -1.6573,-25.0033 L -1.52824,-25.1034 L -1.39315,-25.1953 L -1.25256,-25.2784
 L -1.10703,-25.3525 L -0.957124,-25.4174 L -0.803444,-25.4727 L -0.646593,-25.5183 L -0.487191,-25.5539 L -0.325866,-25.5795
 L -0.163255,-25.5949 L 0,-25.6 L 0.163255,-25.5949 L 0.325866,-25.5795 L 0.487191,-25.5539 L 0.646593,-25.5183
 L 0.803444,-25.4727 L 0.957124,-25.4174 L 1.10703,-25.3525 L 1.25256,-25.2784 L 1.39315,-25.1953 L 1.52824,-25.1034
 L 1.6573,-25.0033 L 1.77982,-24.8953 L 1.89532,-24.7798 L 2.00333,-24.6573 L 2.10344,-24.5282 L 2.19525,-24.3931
 L 2.2784,-24.2526 L 2.35255,-24.107 L 2.41742,-23.9571 L 2.47275,-23.8034 L 2.51832,-23.6466 L 2.55395,-23.4872
 L 2.5795,-23.3259 L 2.59487,-23.1633 L 2.6,-23 L 2.59487,-22.8367 L 2.5795,-22.6741 L 2.55395,-22.5128
 L 2.51832,-22.3534 L 2.47275,-22.1966 L 2.41742,-22.0429 L 2.35255,-21.893 L 2.2784,-21.7474 L 2.19525,-21.6068
 L 2.10344,-21.4718 L 2.00333,-21.3427 L 1.89532,-21.2202 L 1.77982,-21.1047 L 1.6573,-20.9967 L 1.52824,-20.8966
 L 1.39315,-20.8047 L 1.25256,-20.7216 L 1.10703,-20.6474 L 0.957124,-20.5826 L 0.803444,-20.5273 L 0.646593,-20.4817
 L 0.487191,-20.4461 L 0.325866,-20.4205 L 0.163255,-20.4051 L 0,-20.4 L -0.163255,-20.4051 L -0.325866,-20.4205
 L -0.487191,-20.4461 L -0.646593,-20.4817 L -0.803444,-20.5273 L -0.957124,-20.5826 L -1.10703,-20.6474 L -1.25256,-20.7216
 L -1.39315,-20.8047 L -1.52824,-20.8966 L -1.6573,-20.9967 L -1.77982,-21.1047 L -1.89532,-21.2202 L -2.00333,-21.3427
 L -2.10344,-21.4718 L -2.19525,-21.6068 L -2.2784,-21.7474 L -2.35255,-21.893 L -2.41742,-22.0429 L -2.47275,-22.1966
 L -2.51832,-22.3534 L -2.55395,-22.5128 L -2.5795,-22.6741 L -2.59487,-22.8367 z
M 24.25,60 L 24.2554,59.8273 L 24.2717,59.6553 L 24.2987,59.4847 L 24.3364,59.3161 L 24.3846,59.1502
 L 24.4431,58.9877 L 24.5117,58.8291 L 24.5902,58.6752 L 24.6781,58.5265 L 24.7752,58.3836 L 24.8811,58.2471
 L 24.9953,58.1175 L 25.1175,57.9953 L 25.2471,57.8811 L 25.3836,57.7752 L 25.5265,57.6781 L 25.6752,57.5902
 L 25.8291,57.5117 L 25.9877,57.4431 L 26.1502,57.3846 L 26.3161,57.3364 L 26.4847,57.2987 L 26.6553,57.2717
 L 26.8273,57.2554 L 27,57.25 L 27.1727,57.2554 L 27.3447,57.2717 L 27.5153,57.2987 L 27.6839,57.3364
 L 27.8498,57.3846 L 28.0123,57.4431 L 28.1709,57.5117 L 28.3248,57.5902 L 28.4735,57.6781 L 28.6164,57.7752
 L 28.7529,57.8811 L 28.8825,57.9953 L 29.0047,58.1175 L 29.1189,58.2471 L 29.2248,58.3836 L 29.3219,58.5265
 L 29.4098,58.6752 L 29.4883,58.8291 L 29.5569,58.9877 L 29.6154,59.1502 L 29.6636,59.3161 L 29.7013,59.4847
 L 29.7283,59.6553 L 29.7446,59.8273 L 29.75,60 L 29.7446,60.1727 L 29.7283,60.3447 L 29.7013,60.5153
 L 29.6636,60.6839 L 29.6154,60.8498 L 29.5569,61.0123 L 29.4883,61.1709 L 29.4098,61.3248 L 29.3219,61.4735
 L 29.2248,61.6164 L 29.1189,61.7529 L 29.0047,61.8825 L 28.8825,62.0047 L 28.7529,62.1189 L 28.6164,62.2248
 L 28.4735,62.3219 L 28.3248,62.4098 L 28.1709,62.4883 L 28.0123,62.5569 L 27.8498,62.6154 L 27.6839,62.6636
 L 27.5153,62.7013 L 27.3447,62.7283 L 27.1727,62.7446 L 27,62.75 L 26.8273,62.7446 L 26.6553,62.7283
 L 26.4847,62.7013 L 26.3161,62.6636 L 26.1502,62.6154 L 25.9877,62.5569 L 25.8291,62.4883 L 25.6752,62.4098
 L 25.5265,62.3219 L 25.3836,62.2248 L 25.2471,62.1189 L 25.1175,62.0047 L 24.9953,61.8825 L 24.8811,61.7529
 L 24.7752,61.6164 L 24.6781,61.4735 L 24.5902,61.3248 L 24.5117,61.1709 L 24.4431,61.0123 L 24.3846,60.8498
 L 24.3364,60.6839 L 24.2987,60.5153 L 24.2717,60.3447 L 24.2554,60.1727 z
" stroke="black" fill="lightgray" stroke-width="0.5"/>
</svg>
